<?xml version="1.0" encoding="utf-8"?>
<!-- Generator: Adobe Illustrator 22.1.0, SVG Export Plug-In . SVG Version: 6.00 Build 0)  -->
<svg version="1.1" id="Layer_1" xmlns="http://www.w3.org/2000/svg" xmlns:xlink="http://www.w3.org/1999/xlink" x="0px" y="0px"
	 viewBox="0 0 100 100" style="enable-background:new 0 0 100 100;" xml:space="preserve">
<g>
	<path d="M96.8,50.7L91,43.7v-7.5h1c2.6,0,4.7-2.1,4.7-4.7v-5.3c0,0,0,0,0,0v0c0,0,0,0,0,0c0-0.1,0-0.2-0.1-0.3c0,0,0,0,0-0.1
		c0,0,0,0,0-0.1L85.7,4.6C85.6,4.2,85.2,4,84.8,4H15.2c-0.4,0-0.7,0.2-0.9,0.5L3.3,25.7c0,0,0,0,0,0.1c0,0,0,0,0,0.1
		c0,0.1-0.1,0.2-0.1,0.3c0,0,0,0,0,0v0c0,0,0,0,0,0v5.3c0,2.6,2.1,4.7,4.7,4.7h1v7.5l-5.8,6.9C2.9,51,2.9,51.4,3,51.7
		c0.2,0.4,0.5,0.6,0.9,0.6h5v36h-2c-0.6,0-1,0.4-1,1V95c0,0.6,0.4,1,1,1h86.8c0.6,0,1-0.4,1-1v-5.7c0-0.6-0.4-1-1-1H91v-36h5
		c0.4,0,0.7-0.2,0.9-0.6C97.1,51.4,97.1,51,96.8,50.7z M92.1,34.2h-4c-1.5,0-2.7-1.2-2.7-2.7v-4.3h9.4v4.3
		C94.8,33,93.6,34.2,92.1,34.2z M66.3,34.2c0-0.1,0-0.1,0-0.1c0-0.2-0.1-0.3-0.1-0.4c-0.1-0.2-0.1-0.4-0.2-0.6
		c-0.1-0.1-0.1-0.3-0.2-0.4c-0.1-0.2-0.2-0.4-0.4-0.6c-0.1-0.1-0.1-0.2-0.2-0.3c-0.2-0.3-0.5-0.6-0.7-0.9c0,0,0,0-0.1,0
		c-0.2-0.2-0.5-0.5-0.8-0.7c-0.1,0-0.1-0.1-0.2-0.1c-0.3-0.2-0.6-0.4-0.9-0.5c0,0,0,0,0,0v-2.2h9.4v4.3c0,1.5-1.2,2.7-2.7,2.7H66.3z
		 M60.9,32.4c-0.4-0.4-1-0.4-1.4,0l-2,2l-1.2,1.2c-0.4,0.4-0.4,1,0,1.4l3.6,3.6c-1.4,0.1-2.8-0.4-3.9-1.5c-1-1-1.6-2.4-1.4-3.9
		c0-0.3,0.1-0.7,0.2-1c0,0,0,0,0,0c0-0.2,0.1-0.3,0.2-0.5c0,0,0-0.1,0-0.1c0.1-0.3,0.2-0.5,0.4-0.7c0.2-0.3,0.4-0.6,0.7-0.8
		c0.2-0.2,0.5-0.4,0.7-0.6c0.2-0.1,0.4-0.2,0.6-0.3c0.1,0,0.1-0.1,0.2-0.1c0,0,0.1,0,0.1-0.1c0.1-0.1,0.3-0.1,0.4-0.2l0,0
		c0.2-0.1,0.5-0.1,0.7-0.1c0.1,0,0.2,0,0.2,0c0.2,0,0.3,0,0.5,0c0.2,0,0.4,0,0.6,0.1c0.1,0,0.1,0,0.2,0c0.3,0,0.5,0.1,0.8,0.2
		c0.7,0.2,1.4,0.6,1.9,1.2c0.9,0.8,1.3,1.9,1.4,3.2c0,0.2,0,0.5,0,0.7L60.9,32.4z M43.7,37c0.4-0.4,0.4-1,0-1.4l-3.2-3.2
		c-0.4-0.4-1-0.4-1.4,0L35.5,36c0-0.2,0-0.5,0-0.7c0-0.6,0.2-1.2,0.4-1.7c0.2-0.5,0.6-1,1-1.4c0,0,0,0,0,0c0.3-0.2,0.5-0.5,0.8-0.7
		c0,0,0,0,0,0c0.3-0.2,0.6-0.3,1-0.4c0,0,0,0,0,0c0,0,0,0,0,0c0,0,0,0,0,0c0.3-0.1,0.6-0.2,0.9-0.2c0.7-0.1,1.4-0.1,2,0.1
		c0,0,0,0,0.1,0c0.8,0.2,1.5,0.7,2.1,1.3c0.6,0.6,1,1.3,1.3,2.1v0c0,0,0,0,0,0c0.1,0.3,0.1,0.6,0.2,0.9c0,0,0,0,0,0
		c0,0.1,0,0.3,0,0.4c0,1.3-0.5,2.6-1.5,3.5c-1,1-2.5,1.6-3.9,1.5L43.7,37z M34.3,32.5c-0.1,0.2-0.1,0.3-0.2,0.5
		c-0.1,0.2-0.1,0.4-0.2,0.6c-0.1,0.2-0.1,0.3-0.1,0.5c0,0,0,0.1,0,0.1h-2.9c-1.5,0-2.7-1.2-2.7-2.7v-4.3h9.4v2.2c0,0,0,0,0,0
		c-0.3,0.2-0.7,0.3-1,0.6c0,0-0.1,0.1-0.1,0.1c-0.3,0.2-0.6,0.5-0.9,0.7c-0.1,0.1-0.1,0.1-0.2,0.2c-0.2,0.2-0.4,0.4-0.5,0.6
		c-0.1,0.1-0.2,0.3-0.3,0.4C34.5,32.1,34.4,32.3,34.3,32.5z M60.4,28.7c-0.1,0-0.2,0-0.3,0c-0.1,0-0.2,0-0.3,0c-0.2,0-0.4,0-0.7,0
		c-0.1,0-0.1,0-0.2,0c-0.3,0-0.6,0.1-0.9,0.1c0,0,0,0,0,0l-1.6-1.6h3.9V28.7z M54.5,30.7c-0.2,0.2-0.4,0.4-0.6,0.7
		c0,0.1-0.1,0.1-0.1,0.2c-0.1,0.1-0.1,0.2-0.2,0.3c-0.1,0.1-0.2,0.3-0.2,0.4c0,0,0,0,0,0l-0.9-0.9l-1.1-1.1l2.7-2.7l2,2
		c-0.1,0.1-0.3,0.2-0.4,0.3c0,0,0,0-0.1,0c0,0,0,0,0,0c0,0,0,0,0,0c0,0,0,0,0,0c-0.2,0.2-0.5,0.3-0.7,0.5
		C54.8,30.5,54.7,30.6,54.5,30.7z M46.6,32.2c-0.1-0.1-0.2-0.3-0.2-0.4c-0.1-0.1-0.2-0.3-0.3-0.4c-0.2-0.3-0.4-0.5-0.6-0.7
		c-0.3-0.3-0.5-0.5-0.8-0.7c-0.1-0.1-0.2-0.1-0.3-0.2c-0.1-0.1-0.3-0.2-0.4-0.3l2.4-2.4l0.3-0.3l1.7-1.7h0l2.4-2.4
		c0,0,0.1-0.1,0.1-0.1l2.6-2.6c0.3,0.5,0.7,1.1,1.1,1.5c0.3,0.3,0.7,0.6,1.1,0.9c0.1,0.1,0.3,0.2,0.4,0.3l-2.4,2.4l-0.2,0.2
		c0,0-0.1,0-0.1,0.1l-1.7,1.7l-2.4,2.4c0,0,0,0.1-0.1,0.1L47,31.8L46.6,32.2z M40.5,28.6c-0.1,0-0.1,0-0.2,0c-0.2,0-0.4,0-0.5,0
		c-0.1,0-0.1,0-0.2,0v-1.6h3.9l-0.7,0.7l-0.9,0.9c-0.3-0.1-0.6-0.1-0.8-0.1c-0.1,0-0.1,0-0.2,0C40.7,28.7,40.6,28.6,40.5,28.6z
		 M41.6,16l-1.5,1.5l0.2-2.8L41.6,16z M39.1,19.9c0.2,0.2,0.4,0.3,0.7,0.3s0.5-0.1,0.7-0.3l3.2-3.2c0.4-0.4,0.4-1,0-1.4l-3.6-3.6
		c1.4-0.1,2.8,0.4,3.9,1.5c1.3,1.3,1.8,3.1,1.3,4.9c-0.1,0.4-0.3,0.8-0.5,1.1c-0.1,0.1-0.2,0.3-0.3,0.4c-0.2,0.2-0.3,0.4-0.5,0.6
		c-0.6,0.6-1.3,1-2.1,1.3h0c-0.9,0.3-1.9,0.3-2.8,0c-0.8-0.2-1.5-0.7-2.1-1.3c-1-1-1.6-2.5-1.5-3.9L39.1,19.9z M40.5,23.6
		c0.4,0,0.9,0,1.3-0.1l1.6,1.6h-3.9l0.1-1.6C40,23.6,40.3,23.6,40.5,23.6z M45.9,24.7l-2-2c0.5-0.3,1.1-0.7,1.5-1.2
		c0.2-0.2,0.4-0.5,0.6-0.7c0.1-0.1,0.2-0.3,0.3-0.4c0.1-0.1,0.2-0.3,0.3-0.4l2,2L45.9,24.7z M56,13.1c0.9-1,2.2-1.5,3.5-1.5
		c0.1,0,0.3,0,0.4,0l-3.6,3.6c-0.4,0.4-0.4,1,0,1.4l3.2,3.2c0.4,0.4,1,0.4,1.4,0l3.6-3.6c0.1,1.4-0.4,2.8-1.5,3.9v0
		c-0.6,0.6-1.3,1-2.1,1.2c-0.9,0.3-1.9,0.3-2.8,0c-0.8-0.3-1.6-0.7-2.2-1.3c-0.6-0.6-1-1.4-1.3-2.2v0C54.2,16.3,54.7,14.4,56,13.1z
		 M59.9,17.4L58.4,16l1.3-1.3L59.9,17.4z M58.2,23.5c0.4,0.1,0.9,0.1,1.3,0.1c0.3,0,0.5,0,0.8-0.1l0.1,1.6h-3.9L58.2,23.5z
		 M73.8,25.1L71.3,6h8.1l3.7,19.1H73.8z M71.7,25.1h-9.4l-0.1-2.1c0.8-0.3,1.6-0.8,2.2-1.5c2-2,2.6-5,1.5-7.6
		c-0.1-0.3-0.4-0.5-0.7-0.6c-0.3-0.1-0.7,0-0.9,0.3l-2.5,2.5l-0.2-3.4l0.9-0.9c0.2-0.2,0.3-0.6,0.3-0.9c-0.1-0.3-0.3-0.6-0.6-0.7
		c-0.3-0.1-0.5-0.2-0.8-0.3L61.1,6h8.1L71.7,25.1z M59.4,9.7c-1.8,0-3.5,0.7-4.8,2c-1.6,1.7-2.3,4-1.9,6.3L51,19.6V6h8.1L59.4,9.7z
		 M49,19.6L47.4,18c0.5-2.3-0.3-4.6-1.9-6.3c-1.3-1.3-3-2-4.8-2L40.9,6H49V19.6z M38.6,9.9c-0.3,0.1-0.5,0.2-0.8,0.3
		c-0.3,0.1-0.5,0.4-0.6,0.7c-0.1,0.3,0,0.7,0.3,0.9l0.9,0.9l-0.2,3.4l-2.5-2.5c-0.2-0.2-0.6-0.3-0.9-0.3c-0.3,0.1-0.6,0.3-0.7,0.6
		c-1.1,2.6-0.5,5.6,1.5,7.6c0.6,0.6,1.4,1.1,2.2,1.5l-0.1,2.1h-9.4L30.7,6h8.1L38.6,9.9z M26.2,25.1h-9.4L20.6,6h8.1L26.2,25.1z
		 M16.7,27.1h9.4v4.3c0,1.5-1.2,2.7-2.7,2.7h-4c-1.5,0-2.7-1.2-2.7-2.7V27.1z M73.9,27.1h9.4v4.3c0,1.5-1.2,2.7-2.7,2.7h-4
		c-1.5,0-2.7-1.2-2.7-2.7V27.1z M94.1,25.1h-9L81.4,6h2.8L94.1,25.1z M15.8,6h2.8l-3.7,19.1h-9L15.8,6z M5.2,31.5v-4.3h9.4v4.3
		c0,1.5-1.2,2.7-2.7,2.7h-4C6.4,34.2,5.2,33,5.2,31.5z M12,36.2c1.5,0,2.8-0.7,3.7-1.8c0.9,1.1,2.2,1.8,3.7,1.8h4
		c1.5,0,2.9-0.7,3.7-1.8c0.9,1.1,2.2,1.8,3.7,1.8h2.7c0.1,0.7,0.2,1.5,0.5,2.1c0.1,0.3,0.4,0.5,0.7,0.6c0.3,0.1,0.7,0,0.9-0.3
		l4.1-4.1l1.3,1.3c0,0,0,0,0,0l0.4,0.4l-4.1,4.1c-0.2,0.2-0.3,0.6-0.3,0.9c0.1,0.3,0.3,0.6,0.6,0.7c0.9,0.4,1.8,0.5,2.7,0.5
		c1.8,0,3.6-0.7,4.9-2c1.4-1.4,2.2-3.4,2-5.5c0-0.1,0-0.1,0-0.2c0-0.2,0-0.4-0.1-0.6l2.6-2.6l2.6,2.6c0,0.3-0.1,0.5-0.1,0.8
		c-0.1,2,0.6,4,2,5.5c1.3,1.3,3.1,2,4.9,2c0.9,0,1.8-0.2,2.7-0.5c0.3-0.1,0.5-0.4,0.6-0.7c0.1-0.3,0-0.7-0.3-0.9l-4.1-4.1l0.4-0.4
		c0,0,0,0,0,0l1.3-1.3l4.1,4.1c0.2,0.2,0.6,0.3,0.9,0.3c0.3-0.1,0.6-0.3,0.7-0.6c0.3-0.7,0.5-1.4,0.5-2.1h2.7c1.5,0,2.8-0.7,3.7-1.8
		c0.9,1.1,2.2,1.8,3.7,1.8h4c1.5,0,2.8-0.7,3.7-1.8c0.9,1.1,2.2,1.8,3.7,1.8h1v6.9H11v-6.9H12z M92.7,94H7.9v-3.7h2h82.8V94z
		 M37.6,59.2v29.1h-8.4V59.2H37.6z M27.1,88.3h-8.4V59.2h8.4V88.3z M89,88.3H39.6V58.2c0-0.6-0.4-1-1-1H17.7c-0.6,0-1,0.4-1,1v30.1
		h-5.8v-36H89V88.3z M90.1,50.3C90.1,50.3,90.1,50.3,90.1,50.3C90,50.3,90,50.3,90.1,50.3H10c0,0,0,0,0,0s0,0,0,0H6.1l4.3-5.2h79.2
		l4.3,5.2H90.1z"/>
	<path d="M47.3,80.6h35c0.6,0,1-0.4,1-1v-4.4c0-0.6-0.4-1-1-1h-1.7V58.2c0-0.6-0.4-1-1-1h-30c-0.6,0-1,0.4-1,1v15.9h-1.3
		c-0.6,0-1,0.4-1,1v4.4C46.3,80.1,46.7,80.6,47.3,80.6z M50.6,59.2h28v14.9h-28V59.2z M48.3,76.1h1.3h30h1.7v2.4h-33V76.1z"/>
</g>
</svg>
